# xmcd CD database file
#
# Track frame offsets:
#	150
#	21565
#	35515
#	50590
#	68747
#	82152
#	97410
#	116760
#	135162
#	148007
#	171307
#	188365
#	203897
#	217315
#	234440
#
# Disc length: 3382 seconds
#
# Revision: 0
# Processed by: cddbd v1.5PL3 Copyright (c) Steve Scherf et al.
# Submitted via: CDex 1.51
#
DISCID=e50d340f
DTITLE=Woody Herman - Woody Herman Live 1957, featuring Bill Harris, vol 1
DYEAR=1957
DGENRE=Jazz
TTITLE0=Stairway to the Blues
TTITLE1=Stardust
TTITLE2=Wailing in the Woodshed
TTITLE3=Midnight Sun
TTITLE4=Pennies from Heaven
TTITLE5=Barfly Blues
TTITLE6=Woodchopper's Ball
TTITLE7=Let's Talk
TTITLE8=Sleepy Serenade
TTITLE9=The Preacher
TTITLE10=Comes Love
TTITLE11=Our Love is Here to Stay
TTITLE12=G-String Strut (Gene's Strut)
TTITLE13=Trouble in Mind
TTITLE14=Pimlico
EXTD=YEAR: 1957
EXTT0=
EXTT1=
EXTT2=
EXTT3=
EXTT4=
EXTT5=
EXTT6=
EXTT7=
EXTT8=
EXTT9=
EXTT10=
EXTT11=
EXTT12=
EXTT13=
EXTT14=
PLAYORDER=
